# xmcd CD database file generated by Grip 3.3.1
# 
# Track frame offsets:
#       150
#       14372
#       28950
#       43739
#       58152
#       72933
#       87533
#       101691
#       116391
#       130710
#       146452
#       160796
#       176566
#       188923
#       202459
#       215493
#       230332
#       245767
#       260593
#       273572
#       286735
#       300830
#       314393
# 
# Disc length: 4414 seconds
# 
# Revision: 6
# Processed by: cddbd v1.5.2PL0 Copyright (c) Steve Scherf et al.
# Submitted via: Grip 3.3.1
# 
DISCID=5a113c17
DTITLE=Various Artist - Nothing But The Blues
DYEAR=1923
DGENRE=Blues
TTITLE0=Bessie Smith - Easy Come, Easy Go Blues
TTITLE1=Bessie Smith - Frosty Morning Blues
TTITLE2=Bessie Smith - Chicago Bound Blues
TTITLE3=Bessie Smith - My Sweet Went Away
TTITLE4=Bessie Smith - Sorrowful Blues
TTITLE5=Bessie Smith - Rocking Chair Blues
TTITLE6=Bessie Smith - Hateful Blues
TTITLE7=Bessie Smith - Pinchbacks-Take Em Away
TTITLE8=Bessie Smith - Eavesdropper's Blues
TTITLE9=Bessie Smith - Haunted House Blues
TTITLE10=Bessie Smith - Whoa, Tillie, Take Your Time
TTITLE11=Bessie Smith - Cemetery Blues
TTITLE12=Bessie Smith - Graveyard Dream Blues
TTITLE13=Bessie Smith - Far Away Blues
TTITLE14=Bessie Smith - I'm Going Back To My Used To Be
TTITLE15=Bessie Smith - Mistreating Daddy
TTITLE16=Bessie Smith - Any Woman's Blues
TTITLE17=Bessie Smith - Ticket Agent, Ease Your Window Down
TTITLE18=Bessie Smith - Boweavil Blues
TTITLE19=Bessie Smith - Blue Spirit Blues
TTITLE20=Bessie Smith - Black Mountain Blues
TTITLE21=Bessie Smith - The House Blues
TTITLE22=Bessie Smith - Nashville Woman's Blues
EXTD=YEAR: 1923
EXTT0=
EXTT1=
EXTT2=
EXTT3=
EXTT4=
EXTT5=
EXTT6=
EXTT7=
EXTT8=
EXTT9=
EXTT10=
EXTT11=
EXTT12=
EXTT13=
EXTT14=
EXTT15=
EXTT16=
EXTT17=
EXTT18=
EXTT19=
EXTT20=
EXTT21=
EXTT22=
PLAYORDER=
